<?xml version="1.0" standalone="no"?>
<!DOCTYPE svg PUBLIC "-//W3C//DTD SVG 20010904//EN" "http://www.w3.org/TR/2001/REC-SVG-20010904/DTD/svg10.dtd">
<!-- Created using Krita: https://krita.org -->
<svg xmlns="http://www.w3.org/2000/svg" 
    xmlns:xlink="http://www.w3.org/1999/xlink"
    xmlns:krita="http://krita.org/namespaces/svg/krita"
    xmlns:sodipodi="http://sodipodi.sourceforge.net/DTD/sodipodi-0.dtd"
    width="1800pt"
    height="1800pt"
    viewBox="0 0 1800 1800">
<defs/>
<path id="shape0" transform="translate(25.2478498373074, 720.927007685345)" fill="none" stroke="#f0d989" stroke-width="30" stroke-linecap="square" stroke-linejoin="bevel" d="M0 163.939C160.033 90.6624 220.167 42.3953 180.4 19.138C120.75 -15.7479 79.8575 80.0608 82.2135 93.3717C84.5696 106.683 79.8913 160.781 147.984 185.476C193.38 201.94 268.726 150.017 374.022 29.7078C391.256 109.465 388.727 165.786 365.028 183.185C299.482 202.778 249.682 178.076 208.588 123.157C291.382 140.87 366.098 156.331 420.012 132.482C440.46 107.682 462.673 78.2729 486.651 44.2558C529.897 21.4387 563.739 16.4265 588.179 29.2191C439.837 16.908 460.907 111.125 455.698 140.111C469.767 190.508 504.844 206.394 560.931 187.768C618.544 140.6 721.708 -5.0052 786.502 24.448C743.114 4.92581 694.655 28.9427 655.359 111.701C658.571 191.373 702.736 221.17 756.662 173.219C779.031 149.45 785.434 90.3397 777.899 12.6098C782.225 44.8979 788.875 93.8319 811.747 170.564C834.932 197.455 860.005 196.774 886.967 168.522C901.489 150.651 914.909 94.4773 927.226 0C922.241 52.4416 925.78 100.669 937.844 144.681C946.687 159.171 961.987 168.645 983.744 173.104C1009.77 164.641 1030.28 149.061 1045.29 126.364C1052.8 101.861 1058.8 61.2882 1063.28 4.64571C1068.79 58.6137 1072.82 136.762 1075.35 239.09C1066.23 291.673 1052.77 325.124 1034.95 339.442C991.603 362.276 951.933 355.759 915.943 319.89C904.605 295.182 914.208 268.859 944.751 240.923C1010.72 225.608 1066.16 205.916 1111.06 181.846C1135.87 154.163 1151.05 131.545 1156.63 113.992C1159.6 77.08 1159.45 44.1708 1211.94 15.2645C1231.58 17.338 1245.87 21.5313 1254.81 27.8444C1226.51 14.2074 1201.15 17.0933 1178.76 36.502C1157.39 76.9532 1156.38 94.2271 1160.23 126.051C1171.11 151.485 1188.79 164.332 1213.27 164.591C1236.05 159.269 1254.91 142.861 1269.85 115.367C1271.67 96.4749 1281.72 58.127 1249.75 24.073C1287.15 54.6967 1292.62 139.15 1299.91 199.682C1300.47 238.122 1293.58 277.683 1279.24 318.364C1259.78 345.775 1238.96 360.439 1216.76 362.354C1172.54 353.031 1145.76 342.187 1136.43 329.82C1123.31 300.738 1131.82 275.944 1161.96 255.435C1204.12 231.862 1237.89 213.43 1263.27 200.14C1312.14 174.273 1355.99 149.987 1394.81 127.281C1437.37 94.0005 1461.96 70.1724 1468.57 55.7966C1475.62 23.5989 1452.73 11.7741 1399.89 20.3222C1364.32 40.8701 1349.77 70.2788 1356.24 108.548C1360.08 137.08 1367.74 157.259 1379.24 169.086C1416.55 184.9 1445.46 190.821 1473.43 187.819C1534.64 170.122 1579.6 134.892 1598.86 116.996C1625.16 95.6642 1642.17 77.7084 1649.91 63.1283C1653.83 40.6034 1639.42 28.5366 1606.69 26.928C1580.49 30.9794 1560.29 45.0319 1546.08 69.0853C1536.36 94.1653 1534.56 114.985 1540.67 131.543C1556.8 166.887 1582.15 186.753 1616.7 191.143C1651.44 183.792 1676.94 173.937 1693.19 161.578C1705.15 153.428 1723.92 137.718 1749.5 114.45" sodipodi:nodetypes="czzzcccccccccccccccccccccccccccccccccccccccccccccccccccc"/>
</svg>
